<svg xmlns="http://www.w3.org/2000/svg" style="display: none;"><symbol id="check" viewBox="0 0 511.985 511.985"><title>check</title><path d="M500.088,83.681c-15.841-15.862-41.564-15.852-57.426,0L184.205,342.148L69.332,227.276 c-15.862-15.862-41.574-15.862-57.436,0c-15.862,15.862-15.862,41.574,0,57.436l143.585,143.585 c7.926,7.926,18.319,11.899,28.713,11.899c10.394,0,20.797-3.963,28.723-11.899l287.171-287.181 C515.95,125.265,515.95,99.542,500.088,83.681z"/></symbol><symbol id="workflow" viewBox="0 0 512 512"><title>workflow</title><g> <g> <rect x="362" y="362" width="150" height="150"/> </g> </g><g> <g> <path d="M482,60H150V0H0v150h150V90h332v151h-85.458v-30.557L351,255.997l45.542,45.564V271H482c16.542,0,30-13.458,30-30V90 C512,73.458,498.542,60,482,60z"/> </g> </g><g> <g> <path d="M342,436.997l-45.542-45.553V422H31V271h150v60h150V181H181v60H31c-16.542,0-30,13.458-30,30v151 c0,16.542,13.458,30,30,30h265.458v30.561L342,436.997z"/> </g> </g></symbol><symbol id="close" viewBox="0 0 512 512"><title>close</title><path d="m25 512a25 25 0 0 1 -17.68-42.68l462-462a25 25 0 0 1 35.36 35.36l-462 462a24.93 24.93 0 0 1 -17.68 7.32z"/><path d="m487 512a24.93 24.93 0 0 1 -17.68-7.32l-462-462a25 25 0 0 1 35.36-35.36l462 462a25 25 0 0 1 -17.68 42.68z"/></symbol><symbol id="power-off" viewBox="0 0 6.3499999 6.3500002"><title>power-off</title><g id="layer1" transform="translate(0 -290.65)"><path id="path52" d="m3.1721577 291.17917a.26463566.26580324 0 0 0 -.262025.26889v2.12674a.26486756.26603617 0 0 0 .5297351 0v-2.12674a.26463566.26580324 0 0 0 -.2677101-.26889zm1.5437259.53311a.26463566.26580324 0 0 0 -.025842.00052.26463566.26580324 0 0 0 -.1467753.46926c.4583643.39096.7483457.97287.7483479 1.62632.0000018 1.17989-.9432648 2.13089-2.1153231 2.13089-1.1720581 0-2.1173921-.951-2.1173901-2.13089.000002-.64967.2862991-1.22762.7400788-1.61853a.26467261.26584036 0 1 0 -.343681-.40438c-.5664588.48798-.92612958 1.21533-.92613207 2.02291-.00000238 1.46669 1.18858337 2.66244 2.64712517 2.66244 1.4585422 0 2.6445438-1.19575 2.6445414-2.66244-.0000027-.81229-.3632264-1.54263-.9354347-2.03069a.26463566.26580324 0 0 0 -.1695153-.0654z" font-variant-ligatures="normal" font-variant-position="normal" font-variant-caps="normal" font-variant-numeric="normal" font-variant-alternates="normal" font-feature-settings="normal" text-indent="0" text-align="start" text-decoration-line="none" text-decoration-style="solid" text-decoration-color="rgb(0,0,0)" text-transform="none" text-orientation="mixed" white-space="normal" shape-padding="0" isolation="auto" mix-blend-mode="normal" solid-color="rgb(0,0,0)" solid-opacity="1" vector-effect="none"/></g></symbol><symbol id="user" viewBox="0 0 100 100"><title>user</title><path d="m50 2.5c-26.1917572 0-47.5 21.3082409-47.5 47.5s21.3082428 47.5 47.5 47.5 47.5-21.3082428 47.5-47.5-21.3082428-47.5-47.5-47.5zm28.8339462 76.1135483c-3.6421967-7.4900131-11.3205719-12.6594467-20.2055969-12.6594467h-17.2566986c-8.8850288 0-16.5634041 5.1694336-20.2055988 12.6594467-7.2950278-7.3506775-11.81038-17.4638176-11.81038-28.6135483 0-22.4114799 18.2333269-40.64433 40.6443281-40.64433s40.6443253 18.2328501 40.6443253 40.64433c0 11.1497307-4.5153504 21.2628708-11.8103791 28.6135483z"/><circle cx="50" cy="40.869" r="18.263"/></symbol><symbol id="api" viewBox="0 0 511 511.99925"><title>api</title><path d="m437.160156 74.652344c-99.972656-99.601563-261.742187-99.585938-361.667968.339844-71.007813 71.011718-92.632813 174.914062-60.40625 266.296874l.378906 1.070313c22.347656 62.488281 102.503906 80.449219 149.632812 33.320313l14.179688-14.183594c38.101562 25.050781 90.179687 21.0625 123.941406-12.699219l55.621094-55.621094c3.75-3.746093 5.859375-8.835937 5.859375-14.140625 0-5.300781-2.109375-10.390625-5.859375-14.140625l-18.441406-18.441406 54.976562-54.972656c7.8125-7.8125 7.8125-20.472657 0-28.28125-7.808594-7.8125-20.472656-7.8125-28.28125 0l-54.976562 54.976562-17.796876-17.796875 55.769532-55.769531c7.808594-7.8125 7.808594-20.472656 0-28.28125-7.8125-7.808594-20.472656-7.8125-28.28125 0l-55.769532 55.769531-18.441406-18.441406c-7.808594-7.8125-20.472656-7.8125-28.28125 0l-55.621094 55.617188c-33.621093 33.625-37.851562 85.675781-12.695312 123.941406l-14.1875 14.183594c-25.6875 25.6875-70.886719 17.28125-83.6875-18.515626l-.3125-.875c-27.089844-76.820312-9.210938-164.558593 50.960938-224.730468 84.277343-84.277344 220.6875-84.449219 305.15625-.289063 84.34375 84.03125 84.535156 221.367188.398437 305.621094-61.738281 61.828125-149.925781 77.492187-224.839844 51.070313-10.414062-3.671876-21.839843 1.792968-25.511719 12.210937-3.675781 10.414063 1.792969 21.835937 12.207032 25.507813 89.027344 31.398437 193.453125 12.570312 266.449218-60.527344 99.761719-99.902344 99.550782-262.558594-.472656-362.21875zm-245.183594 162.90625 41.480469-41.480469 82.960938 82.960937-41.480469 41.476563c-22.871094 22.875-60.085938 22.875-82.960938 0-22.871093-22.871094-22.871093-60.085937 0-82.957031zm0 0"/></symbol><symbol id="bill" viewBox="0 0 64 64"><title>bill</title><path d="m50.7 9.8h-28.69c-3.31 0-6 2.69-6 6v28.3h-5.21c-.55 0-1 .45-1 1v5.6c0 1.93 1.57 3.5 3.5 3.5h31.19c1.93 0 3.5-1.57 3.5-3.5v-17.7h2.71c1.93 0 3.5-1.57 3.5-3.5v-16.2c0-1.93-1.57-3.5-3.5-3.5zm-4.71 3.5v37.4c0 .82-.67 1.5-1.5 1.5h-1.21c-.84 0-1.5-.66-1.5-1.5v-5.6c0-.55-.45-1-1-1h-22.77v-28.3c0-2.2 1.79-4 4-4h24.32c-.22.46-.34.97-.34 1.5z"/><path d="m39.5 36.272h-15c-.553 0-1 .448-1 1s.447 1 1 1h15c.553 0 1-.448 1-1s-.447-1-1-1z"/><path d="m37.861 40.259h-11.722c-.553 0-1 .448-1 1s.447 1 1 1h11.723c.553 0 1-.448 1-1s-.448-1-1.001-1z"/><path d="m32 13.63c-5.42 0-9.83 4.41-9.83 9.84 0 5.42 4.41 9.83 9.83 9.83s9.83-4.41 9.83-9.83c0-5.43-4.41-9.84-9.83-9.84zm0 8.83c1.79 0 3.25 1.46 3.25 3.25 0 1.38-.88 2.56-2.1 3.03v1.05c0 .56-.45 1-1 1s-1-.44-1-1v-.96c-1.38-.38-2.4-1.63-2.4-3.12 0-.55.45-1 1-1 .56 0 1 .45 1 1 0 .69.56 1.25 1.25 1.25s1.25-.56 1.25-1.25-.56-1.25-1.25-1.25c-1.79 0-3.25-1.45-3.25-3.24 0-1.5 1.02-2.74 2.4-3.12v-.96c0-.56.45-1 1-1s1 .44 1 1v1.05c1.22.47 2.1 1.65 2.1 3.03 0 .55-.45 1-1 1-.56 0-1-.45-1-1 0-.69-.56-1.25-1.25-1.25s-1.25.56-1.25 1.25.56 1.24 1.25 1.24z"/></symbol><symbol id="fuse" viewBox="0 0 512 512"><title>fuse</title><path d="m452.5 196.5c-2.915 0-5.778.22-8.581.627-8.557-13.491-19.962-25.012-33.519-33.724-17.716-11.385-38.256-17.403-59.4-17.403-60.654 0-110 49.346-110 110 0 44.112-35.888 80-80 80-25.868 0-49.972-12.654-64.853-33.177 13.898-10.901 22.853-27.831 22.853-46.823 0-32.809-26.691-59.5-59.5-59.5s-59.5 26.691-59.5 59.5 26.691 59.5 59.5 59.5c2.918 0 5.784-.221 8.591-.628 19.995 31.447 55.08 51.128 92.909 51.128 60.654 0 110-49.346 110-110 0-44.112 35.888-80 80-80 25.79 0 49.961 12.668 64.855 33.176-13.899 10.901-22.855 27.831-22.855 46.824 0 32.809 26.691 59.5 59.5 59.5s59.5-26.691 59.5-59.5-26.691-59.5-59.5-59.5zm-422.5 59.5c0-16.266 13.233-29.5 29.5-29.5s29.5 13.234 29.5 29.5-13.233 29.5-29.5 29.5-29.5-13.234-29.5-29.5zm422.5 29.5c-16.267 0-29.5-13.234-29.5-29.5s13.233-29.5 29.5-29.5 29.5 13.234 29.5 29.5-13.233 29.5-29.5 29.5z"/></symbol><symbol id="bugs" viewBox="0 0 512 512"><title>bugs</title><g> <g> <path d="M511.924,512l-42.857-75h3.009v-30h-20.152l-33.714-59h53.867v-30h-50.765l-27.302-12.351l-2.933-5.133V266.87 L422.751,245h49.325v-30h-58.675l-22.325,15.415v-40.628l-7.956-7.956L412.975,147h59.101v-30h-72.899l-37.333,43.555 l-10.768-10.768v-56l-13.662-13.662C370.389,68.427,394.076,36.935,394.076,0h-30c0,29.28-23,53.282-51.881,54.906L292.29,35 h-11.213V15h-30v20h-30V15h-30v20h-11.213l-19.906,19.906C131.076,53.282,108.076,29.28,108.076,0h-30 c0,36.935,23.687,68.427,56.662,80.125l-13.662,13.662v56l-10.768,10.768L72.975,117H0.076v30h59.101l29.855,34.831l-7.956,7.956 v40.628L58.751,215H0.076v30h49.325l31.675,21.871v37.451L50.841,318H0.076v30h57.235l26.862-12.152 c2.215,10.558,5.582,20.725,9.977,30.351L59.177,407H0.076v30h72.899l37.378-43.607c17.218,22.813,41.099,40.48,69.107,49.952 L140.229,512H511.924z M460.229,482H191.924l134.152-234.767L460.229,482z M361.076,202.213v45.803l-35-61.249l-75,131.25V171 h78.787L361.076,202.213z M151.076,106.213L192.29,65h87.573l41.213,41.213V141h-170V106.213z M111.076,306V202.213L142.29,171 h78.787v199.517L194.7,416.675C145.672,402.855,111.076,357.859,111.076,306z"/> </g> </g><g> <g> <rect x="311.08" y="431" width="30" height="30"/> </g> </g><g> <g> <rect x="311.08" y="311" width="30" height="90"/> </g> </g></symbol><symbol id="search" viewBox="0 0 64 64"><title>search</title><path d="m19.895 26.745c-.547 0-.938.254-1.174.763l-3.76 8.299c-.076.17-.113.335-.113.495 0 .226.042.417.127.572s.188.282.311.382c.123.099.255.169.396.212.142.042.269.063.382.063.235 0 .457-.063.664-.19.207-.128.358-.305.452-.53l.509-1.202h4.341l.494 1.202c.095.226.245.402.452.53.208.127.429.19.665.19.339 0 .627-.118.862-.354s.354-.527.354-.876c0-.17-.033-.335-.1-.495l-3.689-8.299c-.217-.508-.608-.762-1.173-.762zm-1.301 6.743 1.301-3.096 1.272 3.096z"/><path d="m38.491 38.958h-26.39v-13.916h26.39v-4h-28.39c-1.1 0-2 .9-2 2v17.916c0 1.1.9 2 2 2h28.39z"/><path d="m54.105 21.042h-7.83v4h5.83v13.916h-5.83v4h7.83c1.1 0 2-.9 2-2v-17.916c0-1.1-.899-2-2-2z"/><path d="m47.384 47.854h-3v-31.708h3c1.104 0 2-.896 2-2s-.896-2-2-2h-3-4-3c-1.104 0-2 .896-2 2s.896 2 2 2h3v31.709h-3c-1.104 0-2 .896-2 2s.896 2 2 2h3 4 3c1.104 0 2-.896 2-2s-.896-2.001-2-2.001z"/></symbol><symbol id="settings" viewBox="0 0 456.556 456.556"><title>settings</title><path d="M97.564,79.443H13.428C6.011,79.443,0,73.428,0,66.015s6.011-13.428,13.428-13.428h84.136 c7.417,0,13.428,6.015,13.428,13.428S104.981,79.443,97.564,79.443z"/><path d="M145.643,127.518c-33.916,0-61.507-27.591-61.507-61.504c0-33.92,27.591-61.511,61.507-61.511s61.507,27.591,61.507,61.511 C207.15,99.928,179.559,127.518,145.643,127.518z M145.643,31.36c-19.107,0-34.651,15.547-34.651,34.654 s15.544,34.647,34.651,34.647s34.651-15.54,34.651-34.647S164.75,31.36,145.643,31.36z"/><path d="M443.128,79.443H242.433c-7.417,0-13.428-6.015-13.428-13.428s6.011-13.428,13.428-13.428h200.694 c7.417,0,13.428,6.015,13.428,13.428S450.545,79.443,443.128,79.443z"/><path d="M325.936,289.782c-33.917,0-61.507-27.591-61.507-61.504s27.591-61.504,61.507-61.504s61.507,27.591,61.507,61.504 S359.853,289.782,325.936,289.782z M325.936,193.631c-19.107,0-34.651,15.54-34.651,34.647s15.544,34.647,34.651,34.647 s34.651-15.54,34.651-34.647S345.043,193.631,325.936,193.631z"/><path d="M229.149,241.706H13.428C6.011,241.706,0,235.691,0,228.278s6.011-13.428,13.428-13.428h215.721 c7.417,0,13.428,6.015,13.428,13.428S236.566,241.706,229.149,241.706z"/><path d="M443.128,241.706h-69.113c-7.417,0-13.428-6.015-13.428-13.428s6.011-13.428,13.428-13.428h69.113 c7.417,0,13.428,6.015,13.428,13.428S450.545,241.706,443.128,241.706z"/><path d="M130.62,452.052c-33.916,0-61.507-27.591-61.507-61.511c0-33.913,27.591-61.504,61.507-61.504s61.507,27.591,61.507,61.504 C192.127,424.461,164.536,452.052,130.62,452.052z M130.62,355.894c-19.107,0-34.651,15.54-34.651,34.647 s15.544,34.654,34.651,34.654s34.651-15.547,34.651-34.654S149.727,355.894,130.62,355.894z"/><path d="M443.128,403.97H227.407c-7.417,0-13.428-6.015-13.428-13.428c0-7.413,6.011-13.428,13.428-13.428h215.721 c7.417,0,13.428,6.015,13.428,13.428C456.556,397.955,450.545,403.97,443.128,403.97z"/><path d="M82.541,403.97H13.428C6.011,403.97,0,397.955,0,390.541c0-7.413,6.011-13.428,13.428-13.428h69.113 c7.417,0,13.428,6.015,13.428,13.428C95.969,397.955,89.958,403.97,82.541,403.97z"/></symbol><symbol id="add" viewBox="0 0 32 32"><title>add</title><path d="m15 22h2v-5h5v-2h-5v-5h-2v5h-5v2h5z"/><path d="m30 2h-28v28h28zm-2 26h-24v-24h24z"/></symbol><symbol id="rocket" viewBox="0 0 32 32"><title>rocket</title><path d="m8.812 26.392c-1.651.948-3.512 1.288-4.614 1.41.122-1.102.462-2.963 1.409-4.615.248-.431.099-.981-.332-1.229-.435-.249-.982-.098-1.229.333-1.696 2.958-1.716 6.336-1.716 6.479 0 .497.403.9.9.9.143 0 3.521-.02 6.479-1.716.431-.248.58-.797.332-1.229-.246-.431-.795-.581-1.229-.333z"/><path d="m30.909 3.275c.011-.591-.212-1.145-.628-1.56-.415-.415-1.015-.62-1.557-.625-2.492.047-9.214.762-15.574 6.471-1.134-.441-2.843-1.096-4.14-.929-1.908.245-4.727 2.841-7.488 5.611-.366.367-.512.887-.389 1.391.122.506.492.903.988 1.062l4.39 1.41c-.331.604-.657 1.222-.972 1.874-.396.82-.228 1.805.418 2.449l5.613 5.613c.412.413.964.631 1.521.631.315 0 .633-.069.929-.212.652-.315 1.27-.641 1.872-.971l1.411 4.389c.159.496.556.866 1.063.989.117.028.235.042.353.042.385 0 .756-.151 1.038-.432 2.77-2.761 5.366-5.579 5.61-7.486.169-1.309-.488-3.008-.929-4.142 5.708-6.36 6.424-13.082 6.471-15.575zm-27.741 9.868c1.465-1.459 4.647-4.542 6.071-4.725.635-.081 1.632.22 2.474.525-1.487 1.537-2.931 3.379-4.277 5.57zm10.069 11.697c-.127.062-.29.034-.394-.07l-5.614-5.614c-.103-.103-.132-.265-.069-.394 6.991-14.481 18.299-15.809 21.599-15.871h.008c.119 0 .197.053.243.099.038.038.103.122.101.252-.064 3.3-1.393 14.608-15.874 21.598zm10.345-2.078c-.183 1.423-3.266 4.606-4.725 6.07l-1.372-4.267c2.193-1.346 4.035-2.791 5.572-4.278.306.841.607 1.836.525 2.475z"/><path d="m24.128 13.214c1.472-1.473 1.472-3.869 0-5.342-1.428-1.426-3.916-1.426-5.342 0-.713.713-1.106 1.662-1.106 2.671s.394 1.958 1.106 2.671c.713.713 1.662 1.106 2.671 1.106s1.957-.393 2.671-1.106zm-1.274-1.273c-.747.748-2.05.748-2.795 0-.374-.373-.58-.87-.58-1.398s.206-1.024.58-1.398c.373-.373.869-.579 1.397-.579.527 0 1.024.206 1.397.579.772.771.772 2.025.001 2.796z"/></symbol><symbol id="day-and-night" viewBox="0 0 32 32"><title>day-and-night</title><path d="m16 6a1 1 0 0 0 1-1v-2a1 1 0 0 0 -2 0v2a1 1 0 0 0 1 1z"/><path d="m16 26a1 1 0 0 0 -1 1v2a1 1 0 0 0 2 0v-2a1 1 0 0 0 -1-1z"/><path d="m5 15h-2a1 1 0 0 0 0 2h2a1 1 0 0 0 0-2z"/><path d="m7.515 23.071-1.415 1.414a1 1 0 1 0 1.415 1.415l1.414-1.414a1 1 0 1 0 -1.414-1.414z"/><path d="m7.515 8.929a1 1 0 0 0 1.414-1.414l-1.414-1.415a1 1 0 0 0 -1.415 1.415z"/><path d="m17 8.06a8.363 8.363 0 0 0 -2 0 8 8 0 0 0 0 15.88 8.363 8.363 0 0 0 2 0 8 8 0 0 0 0-15.88zm-2 13.85a5.993 5.993 0 0 1 0-11.82 5.47 5.47 0 0 1 1-.09v12a5.47 5.47 0 0 1 -1-.09z"/></symbol><symbol id="server" viewBox="0 0 512 512"><title>server</title><path d="m38.469 194.863c15.173-54.029 49.72-100.246 97.276-130.137 34.165-21.474 73.417-33.434 113.513-34.588 33.844-.96 67.606 5.71 98.498 19.396-1.266 4.713-1.952 9.662-1.952 14.769 0 31.429 25.57 56.999 57 56.999 31.429 0 56.999-25.57 56.999-56.999s-25.57-56.999-56.999-56.999c-15.458 0-29.489 6.194-39.767 16.219-35.817-16.445-75.172-24.495-114.641-23.37-45.445 1.308-89.919 14.854-128.614 39.175-53.87 33.859-93.003 86.216-110.193 147.424-17.065 60.768-11.219 125.311 16.463 181.739l26.931-13.212c-24.427-49.793-29.581-106.763-14.514-160.416zm364.335-157.562c14.888 0 27.001 12.113 27.001 27.001s-12.113 27.001-27.001 27.001c-14.889 0-27.002-12.113-27.002-27.001s12.113-27.001 27.002-27.001z"/><path d="m478.801 130.077-26.103 14.78c28.658 50.614 36.624 109.637 22.43 166.197-14.238 56.735-49.364 105.13-98.906 136.27-36.779 23.117-78.371 34.711-120.033 34.709-35.412-.001-70.874-8.384-103.461-25.182 1.919-5.701 2.975-11.795 2.975-18.135 0-31.429-25.57-56.999-56.999-56.999s-56.999 25.57-56.999 56.999 25.57 56.999 56.999 56.999c14.192 0 27.179-5.226 37.167-13.839 37.054 19.713 78.475 30.078 120.544 30.077.481 0 .965-.001 1.446-.004 47.472-.268 93.921-13.833 134.324-39.228 56.119-35.273 95.908-90.094 112.038-154.364 16.077-64.067 7.049-130.933-25.422-188.28zm-380.097 335.639c-14.888 0-27.001-12.113-27.001-27.001s12.113-27.001 27.001-27.001 27.001 12.113 27.001 27.001-12.113 27.001-27.001 27.001z"/><path d="m354.756 221.617c-5.839-21.155-23.757-37.352-45.833-40.671-2.797-13.435-9.497-25.822-19.54-35.828-13.53-13.479-31.39-20.902-50.287-20.902-37.064 0-67.665 28.204-71.469 64.276-40.053 4.109-71.399 38.044-71.399 79.164 0 43.881 35.699 79.58 79.58 79.58h177.099c16.872 0 32.71-6.595 44.595-18.57 11.885-11.974 18.362-27.861 18.237-44.737-.25-33.572-27.382-61.034-60.983-62.312zm21.456 85.917c-6.211 6.257-14.488 9.704-23.305 9.704h-177.1c-27.34 0-49.582-22.242-49.582-49.582s22.242-49.583 49.582-49.583h21.418v-21.989c0-23.088 18.782-41.87 41.87-41.87 22.392 0 41.31 18.847 41.31 41.156v15.145l20.185-.196c14.445.034 26.186 11.797 26.186 26.25v14.999h25.53c18.304 0 33.303 14.617 33.436 32.584.065 8.821-3.319 17.125-9.53 23.382z"/></symbol><symbol id="coin" viewBox="0 0 8.4666665 8.4666669"><title>coin</title><path id="path824" d="m4.2333334.26458337c-2.1887462 0-3.96875003 1.78000383-3.96875003 3.96875003 0 2.188746 1.78000383 3.9687499 3.96875003 3.9687499 2.188746 0 3.9687499-1.7800039 3.9687499-3.9687499 0-2.1887462-1.7800039-3.96875003-3.9687499-3.96875003zm0 .52916667c1.9027632 0 3.4416502 1.53681996 3.4416502 3.43958336 0 1.9027632-1.538887 3.4416502-3.4416502 3.4416502-1.9027634 0-3.43958336-1.538887-3.43958336-3.4416502 0-1.9027634 1.53681996-3.43958336 3.43958336-3.43958336zm-.0036169 1.32446696a.26460979.26460979 0 0 0 -.259933.2676839v.2227254c-.4272102.0801429-.7927162.3552394-.7927165.8319906 0 .3307291.1490956.5982189.3493328.753959s.4263305.2247926.624768.2909385c.1984375.066146.3697359.1293849.467155.2051552.097419.07577.1441772.1395265.1441772.337964 0 .4409723-1.0562663.4409723-1.0562663 0a.26464844.26464844 0 1 0 -.5291667 0c0 .4763793.3658309.7519969.7927165.8325075v.2216917a.26464844.26464844 0 1 0 .5291667 0v-.2216917c.426961-.080468.7932332-.3560628.7932332-.8325075 0-.3307292-.149612-.598219-.3498495-.7539591-.2002372-.1557401-.4263305-.2253093-.624768-.2914552-.1984375-.0661458-.3697359-.1288682-.467155-.2046385-.097419-.0757706-.1441772-.1395264-.1441772-.3379639.0000002-.4409718 1.0562663-.4409718 1.0562663 0a.2648417.2648417 0 1 0 .5296834 0c0-.4760347-.366396-.7508571-.7932332-.8314738v-.2232422a.26460979.26460979 0 0 0 -.2692342-.2676839z" font-variant-ligatures="normal" font-variant-position="normal" font-variant-caps="normal" font-variant-numeric="normal" font-variant-alternates="normal" font-feature-settings="normal" text-indent="0" text-align="start" text-decoration-line="none" text-decoration-style="solid" text-decoration-color="rgb(0,0,0)" text-transform="none" text-orientation="mixed" white-space="normal" shape-padding="0" isolation="auto" mix-blend-mode="normal" solid-color="rgb(0,0,0)" solid-opacity="1" vector-effect="none"/></symbol><symbol id="help" viewBox="0 0 512 512"><title>help</title><path d="M248.158,343.22c-14.639,0-26.491,12.2-26.491,26.84c0,14.291,11.503,26.84,26.491,26.84 c14.988,0,26.84-12.548,26.84-26.84C274.998,355.42,262.799,343.22,248.158,343.22z"/><path d="M252.69,140.002c-47.057,0-68.668,27.885-68.668,46.708c0,13.595,11.502,19.869,20.914,19.869 c18.822,0,11.154-26.84,46.708-26.84c17.429,0,31.372,7.669,31.372,23.703c0,18.824-19.52,29.629-31.023,39.389 c-10.108,8.714-23.354,23.006-23.354,52.983c0,18.125,4.879,23.354,19.171,23.354c17.08,0,20.565-7.668,20.565-14.291 c0-18.126,0.35-28.583,19.521-43.571c9.411-7.32,39.04-31.023,39.04-63.789S297.307,140.002,252.69,140.002z"/><path d="M256,0C114.516,0,0,114.497,0,256v236c0,11.046,8.954,20,20,20h236c141.483,0,256-114.497,256-256 C512,114.516,397.503,0,256,0z M256,472H40V256c0-119.377,96.607-216,216-216c119.377,0,216,96.607,216,216 C472,375.377,375.393,472,256,472z"/></symbol><symbol id="archive" viewBox="0 0 512 512"><title>archive</title><path d="m395.999 136.9v360.1c0 8.28 6.708 15 14.974 15h86.052c8.266 0 14.974-6.72 14.974-15v-360.1zm57.992 143.52c8.276 0 14.974 6.71 14.974 15 0 8.28-6.699 15-14.974 15-8.266 0-14.974-6.72-14.974-15 0-8.29 6.708-15 14.974-15zm15.024 179.07c0 8.27-6.728 14.95-15.024 14.95s-15.024-6.68-15.024-14.95v-97.5c0-8.25 6.728-14.95 15.024-14.95s15.024 6.7 15.024 14.95z"/><path d="m511.995 15v92.004h-115.994v-92.004c0-8.284 6.704-15 14.974-15h86.045c8.271 0 14.975 6.716 14.975 15z"/><path d="m365.95 15v92.004h-115.993v-92.004c0-8.284 6.704-15 14.974-15h86.045c8.27 0 14.974 6.716 14.974 15z"/><path d="m249.96 136.9v360.1c0 8.28 6.699 15 14.974 15h86.042c8.266 0 14.974-6.72 14.974-15v-360.1zm57.982 143.52c8.276 0 14.974 6.71 14.974 15 0 8.28-6.699 15-14.974 15-8.266 0-14.974-6.72-14.974-15 0-8.29 6.708-15 14.974-15zm15.024 179.07c0 8.27-6.719 14.95-15.024 14.95-8.296 0-15.024-6.68-15.024-14.95v-97.5c0-8.25 6.728-14.95 15.024-14.95 8.306 0 15.024 6.7 15.024 14.95z"/><g><path d="m82.905 144.792-82.45 328.017c-2.023 8.064 2.891 16.241 10.949 18.227l85.487 20.528c7.998 1.968 16.083-2.901 18.098-10.905l82.423-327.926zm17.789 230.557-21.133 83.671c-1.672 6.621-7.533 11.094-14.048 11.316-1.377.047-2.78-.095-4.18-.447-8.049-2.006-12.941-10.134-10.916-18.138l21.132-83.681c2.025-8.004 10.19-12.865 18.239-10.859 8.039 2.007 12.93 10.125 10.906 18.138zm2.194-53.175c-8.261.282-15.194-6.194-15.476-14.48-.282-8.275 6.194-15.22 14.455-15.503 8.271-.283 15.194 6.204 15.476 14.48.282 8.285-6.184 15.22-14.455 15.503z"/><path d="m224.856 63.532-20.156 80.194-114.505-27.938 20.134-80.11c2.011-8.003 10.099-12.875 18.099-10.904l85.485 20.529c8.061 1.988 12.97 10.165 10.943 18.229z"/></g></symbol><symbol id="fx-logo" viewBox="0 0 480 143"><title>fx-logo</title><defs><style>.cls-1{fill:#667761;}.cls-2{fill:#d7413a;}</style></defs><path class="cls-1" d="M23.72,126.17l7.16-17.48h1.4l7.09,17.48h-2.01l-6.17-15.45h.74l-6.22,15.45h-1.98ZM27,121.62v-1.65h9.15v1.65h-9.15Z"/><path class="cls-1" d="M47.65,126.42c-.96,0-1.83-.22-2.59-.67-.76-.45-1.36-1.06-1.79-1.84-.43-.78-.65-1.69-.65-2.74v-6.93h1.8v6.86c0,.73.13,1.36.39,1.91.26.54.64.97,1.13,1.27.49.31,1.06.46,1.7.46,1,0,1.79-.33,2.38-.99s.88-1.54.88-2.64v-6.86h1.78v6.93c0,1.03-.21,1.95-.64,2.74-.42.8-1.02,1.42-1.78,1.86-.76.44-1.63.66-2.62.66Z"/><path class="cls-1" d="M56.11,115.83v-1.6h7.8v1.6h-7.8ZM59.14,126.17v-16.97h1.78v16.97h-1.78Z"/><path class="cls-1" d="M72.6,126.42c-1.15,0-2.2-.28-3.14-.84s-1.69-1.31-2.24-2.26c-.55-.95-.83-2.01-.83-3.17s.27-2.19.83-3.12c.55-.93,1.3-1.67,2.24-2.22s1.99-.83,3.14-.83,2.22.27,3.15.81c.93.54,1.67,1.28,2.22,2.22.55.94.83,1.99.83,3.14s-.28,2.25-.83,3.19c-.55.94-1.29,1.69-2.22,2.25-.93.56-1.98.84-3.15.84ZM72.6,124.7c.85,0,1.6-.19,2.25-.58.65-.39,1.17-.93,1.55-1.63.38-.69.57-1.47.57-2.34s-.19-1.63-.57-2.3c-.38-.67-.9-1.2-1.55-1.59-.65-.39-1.4-.58-2.25-.58s-1.58.2-2.24.58c-.66.39-1.18.92-1.55,1.59-.37.67-.56,1.44-.56,2.3s.19,1.66.56,2.35c.37.69.89,1.22,1.55,1.61s1.41.58,2.24.58Z"/><path class="cls-1" d="M82.89,126.17v-11.94h1.78v11.94h-1.78ZM91.09,126.17v-7.32c0-.98-.3-1.77-.89-2.35s-1.34-.88-2.24-.88c-.61,0-1.16.13-1.66.39s-.9.63-1.19,1.11-.44,1.04-.44,1.7l-.81-.33c0-.92.2-1.71.61-2.39.41-.68.95-1.2,1.64-1.57.69-.37,1.46-.56,2.32-.56s1.6.19,2.27.56c.67.37,1.2.9,1.6,1.57.4.68.6,1.48.6,2.41v7.65h-1.8ZM99.32,126.17v-7.32c0-.98-.3-1.77-.89-2.35-.59-.58-1.35-.88-2.26-.88-.59,0-1.14.13-1.64.39-.5.26-.9.63-1.19,1.11-.3.47-.44,1.04-.44,1.7l-1.07-.33c.05-.92.29-1.71.72-2.39.43-.68,1-1.2,1.7-1.57.7-.37,1.48-.56,2.32-.56s1.61.19,2.3.56c.69.37,1.23.9,1.63,1.57.4.68.6,1.48.6,2.41v7.65h-1.78Z"/><path class="cls-1" d="M110.91,126.42c-1.14,0-2.15-.28-3.05-.82-.9-.55-1.6-1.29-2.12-2.22s-.77-1.98-.77-3.15.26-2.25.77-3.19c.52-.94,1.22-1.68,2.12-2.24s1.91-.83,3.02-.83c.91,0,1.73.18,2.45.55.72.36,1.3.87,1.75,1.52s.72,1.41.83,2.27v3.74c-.1.86-.38,1.63-.83,2.29s-1.03,1.17-1.75,1.54-1.53.55-2.43.55ZM111.19,124.72c1.24,0,2.23-.41,2.99-1.24.75-.83,1.13-1.92,1.13-3.28,0-.9-.17-1.69-.52-2.37-.35-.69-.83-1.22-1.45-1.6-.62-.38-1.34-.57-2.17-.57s-1.6.19-2.25.58c-.65.39-1.17.93-1.55,1.61s-.57,1.47-.57,2.35.19,1.66.57,2.34.9,1.21,1.56,1.6c.66.39,1.41.58,2.26.58ZM115.2,126.17v-3.2l.36-2.95-.36-2.87v-2.92h1.78v11.94h-1.78Z"/><path class="cls-1" d="M120.59,115.83v-1.6h7.8v1.6h-7.8ZM123.61,126.17v-16.97h1.78v16.97h-1.78Z"/><path class="cls-1" d="M137.18,126.42c-1.2,0-2.28-.27-3.23-.81-.95-.54-1.7-1.29-2.25-2.24-.55-.95-.83-2.02-.83-3.2s.27-2.22.81-3.16c.54-.94,1.28-1.68,2.21-2.22.93-.54,1.97-.81,3.13-.81,1.08,0,2.04.25,2.88.74.84.49,1.5,1.17,1.98,2.05s.72,1.88.72,3.01c0,.14,0,.29-.03.47s-.05.39-.1.62h-10.34v-1.52h9.37l-.63.56c.02-.88-.13-1.64-.44-2.28-.31-.63-.76-1.13-1.35-1.47-.58-.35-1.29-.52-2.12-.52s-1.62.19-2.26.56c-.64.37-1.15.89-1.51,1.56s-.55,1.46-.55,2.37.19,1.72.57,2.41c.38.69.91,1.24,1.6,1.63.69.39,1.48.58,2.38.58.73,0,1.4-.13,2.01-.39.61-.26,1.13-.66,1.55-1.18l1.14,1.17c-.56.66-1.25,1.17-2.07,1.54s-1.71.55-2.66.55Z"/><path class="cls-1" d="M151.68,126.42c-1.1,0-2.09-.27-2.97-.81-.88-.54-1.58-1.28-2.1-2.22-.52-.94-.77-1.99-.77-3.16s.26-2.25.77-3.19c.52-.94,1.22-1.68,2.1-2.24s1.87-.83,2.97-.83c.9,0,1.71.18,2.44.53s1.33.86,1.82,1.51c.48.65.77,1.42.85,2.3v3.74c-.1.86-.38,1.62-.85,2.27-.47.65-1.06,1.16-1.79,1.54-.73.37-1.55.56-2.46.56ZM151.99,124.72c.83,0,1.56-.19,2.18-.57s1.12-.91,1.47-1.6c.36-.69.53-1.47.53-2.35s-.18-1.68-.55-2.36c-.36-.68-.86-1.21-1.49-1.6-.63-.39-1.36-.58-2.18-.58s-1.57.19-2.21.58c-.64.39-1.15.93-1.51,1.61s-.55,1.47-.55,2.35.18,1.66.55,2.35c.36.69.87,1.22,1.52,1.6s1.39.57,2.22.57ZM157.86,126.17h-1.78v-3.2l.36-2.95-.36-2.87v-8.97h1.78v17.99Z"/><path class="cls-1" d="M167.89,126.17l7.16-17.48h1.4l7.09,17.48h-2.01l-6.17-15.45h.74l-6.22,15.45h-1.98ZM171.17,121.62v-1.65h9.15v1.65h-9.15Z"/><path class="cls-1" d="M187.78,126.17v-17.48h1.86v17.48h-1.86Z"/><path class="cls-1" d="M200.11,126.17l7.16-17.48h1.4l7.09,17.48h-2.01l-6.17-15.45h.74l-6.22,15.45h-1.98ZM203.38,121.62v-1.65h9.15v1.65h-9.15Z"/><path class="cls-1" d="M223.43,126.42c-.64,0-1.26-.09-1.85-.27-.59-.18-1.13-.43-1.61-.75-.48-.32-.9-.7-1.26-1.14l1.14-1.17c.47.58,1.01,1,1.61,1.28.6.28,1.27.42,2.02.42.8,0,1.42-.15,1.87-.46.45-.31.67-.73.67-1.27,0-.51-.16-.91-.48-1.19-.32-.29-.73-.52-1.23-.69s-1.03-.33-1.59-.49c-.56-.16-1.09-.37-1.6-.61-.51-.24-.92-.59-1.23-1.03-.31-.44-.47-1.02-.47-1.73s.17-1.27.5-1.77.8-.89,1.42-1.17,1.35-.42,2.2-.42c.9,0,1.71.16,2.44.48.73.32,1.31.8,1.75,1.42l-1.14,1.14c-.36-.46-.8-.81-1.33-1.06s-1.13-.37-1.79-.37c-.76,0-1.34.15-1.74.44-.4.3-.6.68-.6,1.16s.16.82.48,1.08c.32.26.73.47,1.23.64.5.16,1.03.32,1.59.48.56.16,1.09.37,1.6.64.51.26.92.62,1.23,1.07.31.45.47,1.05.47,1.82,0,1.07-.39,1.92-1.16,2.55-.77.64-1.82.95-3.14.95Z"/><path class="cls-1" d="M235.47,126.42c-.64,0-1.26-.09-1.85-.27-.59-.18-1.13-.43-1.61-.75-.48-.32-.9-.7-1.26-1.14l1.14-1.17c.47.58,1.01,1,1.61,1.28.6.28,1.27.42,2.02.42.8,0,1.42-.15,1.87-.46.45-.31.67-.73.67-1.27,0-.51-.16-.91-.48-1.19-.32-.29-.73-.52-1.23-.69s-1.03-.33-1.59-.49c-.56-.16-1.09-.37-1.6-.61-.51-.24-.92-.59-1.23-1.03-.31-.44-.47-1.02-.47-1.73s.17-1.27.5-1.77.8-.89,1.42-1.17,1.35-.42,2.2-.42c.9,0,1.71.16,2.44.48.73.32,1.31.8,1.75,1.42l-1.14,1.14c-.36-.46-.8-.81-1.33-1.06s-1.13-.37-1.79-.37c-.76,0-1.34.15-1.74.44-.4.3-.6.68-.6,1.16s.16.82.48,1.08c.32.26.73.47,1.23.64.5.16,1.03.32,1.59.48.56.16,1.09.37,1.6.64.51.26.92.62,1.23,1.07.31.45.47,1.05.47,1.82,0,1.07-.39,1.92-1.16,2.55-.77.64-1.82.95-3.14.95Z"/><path class="cls-1" d="M244.74,111.64c-.34,0-.63-.12-.86-.37-.24-.25-.36-.54-.36-.88,0-.36.12-.65.36-.89.24-.24.52-.36.86-.36.37,0,.67.12.9.36.23.24.34.53.34.89s-.11.63-.34.88c-.23.25-.53.37-.9.37ZM243.85,126.17v-11.94h1.8v11.94h-1.8Z"/><path class="cls-1" d="M254.19,126.42c-.64,0-1.26-.09-1.86-.27-.59-.18-1.13-.43-1.61-.75s-.9-.7-1.26-1.14l1.14-1.17c.47.58,1.01,1,1.61,1.28.6.28,1.27.42,2.02.42.8,0,1.42-.15,1.87-.46.45-.31.67-.73.67-1.27,0-.51-.16-.91-.48-1.19-.32-.29-.73-.52-1.23-.69s-1.03-.33-1.59-.49-1.09-.37-1.6-.61c-.51-.24-.92-.59-1.23-1.03-.31-.44-.47-1.02-.47-1.73s.16-1.27.49-1.77.8-.89,1.42-1.17c.62-.28,1.35-.42,2.2-.42.9,0,1.71.16,2.44.48.73.32,1.31.8,1.75,1.42l-1.14,1.14c-.36-.46-.8-.81-1.33-1.06-.53-.25-1.13-.37-1.79-.37-.76,0-1.34.15-1.74.44-.4.3-.6.68-.6,1.16s.16.82.48,1.08c.32.26.73.47,1.23.64s1.03.32,1.59.48c.56.16,1.09.37,1.6.64s.92.62,1.23,1.07c.31.45.47,1.05.47,1.82,0,1.07-.38,1.92-1.16,2.55-.77.64-1.82.95-3.14.95Z"/><path class="cls-1" d="M261.41,115.83v-1.6h7.8v1.6h-7.8ZM264.43,126.17v-16.97h1.78v16.97h-1.78Z"/><path class="cls-1" d="M278,126.42c-1.2,0-2.28-.27-3.23-.81-.95-.54-1.7-1.29-2.25-2.24-.55-.95-.83-2.02-.83-3.2s.27-2.22.81-3.16c.54-.94,1.28-1.68,2.21-2.22.93-.54,1.97-.81,3.12-.81,1.08,0,2.05.25,2.88.74.84.49,1.5,1.17,1.98,2.05s.72,1.88.72,3.01c0,.14,0,.29-.02.47s-.05.39-.1.62h-10.34v-1.52h9.37l-.64.56c.02-.88-.13-1.64-.44-2.28-.31-.63-.76-1.13-1.35-1.47-.58-.35-1.29-.52-2.12-.52s-1.62.19-2.26.56c-.64.37-1.15.89-1.51,1.56-.36.67-.55,1.46-.55,2.37s.19,1.72.57,2.41c.38.69.91,1.24,1.6,1.63.69.39,1.48.58,2.37.58.73,0,1.4-.13,2.01-.39.61-.26,1.13-.66,1.55-1.18l1.14,1.17c-.56.66-1.25,1.17-2.07,1.54s-1.71.55-2.66.55Z"/><path class="cls-1" d="M292.5,126.42c-1.1,0-2.09-.27-2.97-.81-.88-.54-1.58-1.28-2.1-2.22-.52-.94-.77-1.99-.77-3.16s.26-2.25.77-3.19c.52-.94,1.21-1.68,2.1-2.24.88-.55,1.87-.83,2.97-.83.9,0,1.71.18,2.44.53.73.36,1.33.86,1.82,1.51s.77,1.42.85,2.3v3.74c-.1.86-.38,1.62-.85,2.27s-1.06,1.16-1.79,1.54c-.73.37-1.55.56-2.46.56ZM292.81,124.72c.83,0,1.56-.19,2.18-.57s1.12-.91,1.47-1.6c.36-.69.53-1.47.53-2.35s-.18-1.68-.55-2.36c-.37-.68-.86-1.21-1.49-1.6-.63-.39-1.36-.58-2.19-.58s-1.57.19-2.21.58-1.15.93-1.51,1.61c-.36.69-.55,1.47-.55,2.35s.18,1.66.55,2.35c.37.69.87,1.22,1.53,1.6s1.39.57,2.22.57ZM298.68,126.17h-1.78v-3.2l.36-2.95-.36-2.87v-8.97h1.78v17.99Z"/><path class="cls-1" d="M315.11,126.17l-5.64-17.48h1.86l4.75,15.04h-.56l4.7-15.04h1.4l4.73,15.04h-.59l4.75-15.04h1.88l-5.67,17.48h-1.37l-4.7-15.01h.53l-4.7,15.01h-1.37Z"/><path class="cls-1" d="M339.88,126.42c-1.15,0-2.2-.28-3.14-.84-.94-.56-1.69-1.31-2.24-2.26-.55-.95-.83-2.01-.83-3.17s.28-2.19.83-3.12c.55-.93,1.3-1.67,2.24-2.22.94-.55,1.99-.83,3.14-.83s2.22.27,3.15.81c.93.54,1.67,1.28,2.22,2.22.55.94.82,1.99.82,3.14s-.28,2.25-.82,3.19c-.55.94-1.29,1.69-2.22,2.25s-1.98.84-3.15.84ZM339.88,124.7c.85,0,1.6-.19,2.25-.58s1.17-.93,1.55-1.63c.38-.69.57-1.47.57-2.34s-.19-1.63-.57-2.3c-.38-.67-.9-1.2-1.55-1.59-.65-.39-1.4-.58-2.25-.58s-1.57.2-2.24.58c-.66.39-1.18.92-1.55,1.59-.37.67-.56,1.44-.56,2.3s.19,1.66.56,2.35c.37.69.89,1.22,1.55,1.61s1.41.58,2.24.58Z"/><path class="cls-1" d="M350.17,126.17v-11.94h1.78v11.94h-1.78ZM351.95,119.21l-.74-.33c0-1.51.37-2.7,1.11-3.58.74-.88,1.75-1.32,3.04-1.32.59,0,1.14.11,1.63.32s.95.55,1.37,1l-1.17,1.24c-.29-.32-.61-.55-.95-.69-.35-.13-.74-.2-1.18-.2-.91,0-1.66.3-2.24.9-.58.6-.86,1.49-.86,2.66Z"/><path class="cls-1" d="M361.5,126.17v-17.99h1.78v17.99h-1.78ZM369.2,126.17l-6.1-6.12,6-5.82h2.21l-6.53,6.27.08-1.02,6.71,6.68h-2.36Z"/><path class="cls-1" d="M372.91,115.83v-1.6h10.75v1.6h-10.75ZM375.91,126.17v-13.85c0-.81.19-1.55.56-2.21.37-.66.89-1.19,1.56-1.59.67-.4,1.45-.6,2.35-.6l-.03,1.68c-.85,0-1.5.26-1.95.77-.46.52-.69,1.18-.69,1.99v13.79h-1.8ZM382.92,126.17v-18.16h1.8v18.16h-1.8Z"/><path class="cls-1" d="M394.99,126.42c-1.15,0-2.2-.28-3.14-.84-.94-.56-1.69-1.31-2.24-2.26-.55-.95-.83-2.01-.83-3.17s.28-2.19.83-3.12c.55-.93,1.3-1.67,2.24-2.22.94-.55,1.99-.83,3.14-.83s2.22.27,3.15.81c.93.54,1.67,1.28,2.22,2.22.55.94.82,1.99.82,3.14s-.28,2.25-.82,3.19c-.55.94-1.29,1.69-2.22,2.25s-1.98.84-3.15.84ZM394.99,124.7c.85,0,1.6-.19,2.25-.58s1.17-.93,1.55-1.63c.38-.69.57-1.47.57-2.34s-.19-1.63-.57-2.3c-.38-.67-.9-1.2-1.55-1.59-.65-.39-1.4-.58-2.25-.58s-1.57.2-2.24.58c-.66.39-1.18.92-1.55,1.59-.37.67-.56,1.44-.56,2.3s.19,1.66.56,2.35c.37.69.89,1.22,1.55,1.61s1.41.58,2.24.58Z"/><path class="cls-1" d="M408.2,126.17l-4.6-11.94h1.86l3.63,9.91-.66.03,3.61-9.93h1.04l3.61,9.93-.66-.03,3.61-9.91h1.88l-4.62,11.94h-1.04l-3.68-9.78h.76l-3.66,9.78h-1.07Z"/><path class="cls-1" d="M428.44,126.42c-.64,0-1.26-.09-1.86-.27-.59-.18-1.13-.43-1.61-.75s-.9-.7-1.26-1.14l1.14-1.17c.47.58,1.01,1,1.61,1.28.6.28,1.27.42,2.02.42.8,0,1.42-.15,1.87-.46.45-.31.67-.73.67-1.27,0-.51-.16-.91-.48-1.19-.32-.29-.73-.52-1.23-.69s-1.03-.33-1.59-.49-1.09-.37-1.6-.61c-.51-.24-.92-.59-1.23-1.03-.31-.44-.47-1.02-.47-1.73s.16-1.27.49-1.77.8-.89,1.42-1.17c.62-.28,1.35-.42,2.2-.42.9,0,1.71.16,2.44.48.73.32,1.31.8,1.75,1.42l-1.14,1.14c-.36-.46-.8-.81-1.33-1.06-.53-.25-1.13-.37-1.79-.37-.76,0-1.34.15-1.74.44-.4.3-.6.68-.6,1.16s.16.82.48,1.08c.32.26.73.47,1.23.64s1.03.32,1.59.48c.56.16,1.09.37,1.6.64s.92.62,1.23,1.07c.31.45.47,1.05.47,1.82,0,1.07-.38,1.92-1.16,2.55-.77.64-1.82.95-3.14.95Z"/><path class="cls-1" d="M47.51,42.64c.94-.95,2.2-1.42,3.76-1.42.82,0,1.59.12,2.34.36.74.24,1.35.63,1.83,1.17l12.3-12.3c-1.96-2.03-4.42-3.66-7.37-4.88-2.95-1.22-6.32-1.83-10.11-1.83-5.08,0-9.42,1.07-13.01,3.2-3.6,2.13-6.34,4.98-8.24,8.54s-2.84,7.51-2.84,11.84v2.03h-10.17v16.27h10.17v33.75h19.92v-33.75h13.72v-16.27h-13.72v-2.95c0-1.56.47-2.81,1.43-3.76Z"/><path class="cls-1" d="M101.79,78.42c0,1.56-.49,2.83-1.47,3.81-.99.99-2.19,1.48-3.61,1.48-1.01,0-1.91-.22-2.69-.66-.78-.44-1.39-1.07-1.83-1.88-.44-.82-.66-1.73-.66-2.75v-29.07h-19.92v28.87c0,4.34,1.08,8.2,3.25,11.59,2.17,3.39,5.13,6.03,8.89,7.93,3.76,1.9,8.09,2.85,12.96,2.85s9.2-.95,12.96-2.85c3.76-1.89,6.71-4.52,8.85-7.88,2.13-3.35,3.2-7.23,3.2-11.64v-28.87h-19.92v29.07Z"/><path class="cls-1" d="M154.9,63.12c.51-.37,1.4-.56,2.69-.56,1.35,0,3.05.32,5.08.97,2.03.64,3.9,1.91,5.59,3.81l10.57-10.77c-2.44-2.98-5.73-5.22-9.86-6.71-4.14-1.49-8.4-2.24-12.81-2.24s-8.15.73-11.44,2.18c-3.29,1.46-5.83,3.43-7.62,5.9-1.79,2.47-2.69,5.31-2.69,8.49s.54,5.68,1.63,7.67c1.08,2,2.51,3.56,4.27,4.68,1.76,1.12,3.61,2,5.54,2.65,1.93.64,3.76,1.17,5.49,1.57,1.73.41,3.15.85,4.27,1.32,1.12.48,1.68,1.19,1.68,2.14,0,.54-.33.97-.97,1.27-.64.31-1.54.46-2.69.46-2.51,0-4.9-.47-7.17-1.42s-4.22-2.24-5.84-3.86l-10.47,10.77c1.83,1.83,4.08,3.46,6.76,4.88,2.68,1.42,5.58,2.54,8.7,3.35,3.11.82,6.23,1.22,9.35,1.22,6.64,0,11.93-1.45,15.86-4.37,3.93-2.91,5.9-6.84,5.9-11.79,0-3.19-.54-5.78-1.63-7.78-1.08-2-2.49-3.61-4.21-4.82-1.73-1.22-3.55-2.17-5.44-2.85-1.9-.67-3.71-1.22-5.43-1.62-1.73-.41-3.14-.85-4.22-1.32-1.08-.48-1.62-1.09-1.62-1.83,0-.54.25-1,.76-1.37Z"/><path class="cls-1" d="M237.03,60.22c-2.27-3.8-5.41-6.76-9.4-8.89-4-2.14-8.6-3.2-13.82-3.2s-10.03,1.14-14.23,3.41c-4.21,2.27-7.51,5.37-9.91,9.3-2.4,3.93-3.61,8.44-3.61,13.52s1.24,9.71,3.71,13.67c2.47,3.97,5.91,7.05,10.31,9.25,4.4,2.2,9.52,3.31,15.35,3.31,4.54,0,8.57-.71,12.1-2.14,3.52-1.42,6.54-3.55,9.05-6.4l-9.96-9.86c-1.49,1.7-3.14,2.93-4.93,3.71-1.8.78-3.88,1.17-6.25,1.17s-4.47-.48-6.1-1.43c-1.63-.95-2.87-2.35-3.71-4.22-.11-.25-.16-.57-.25-.83l34.25-.23c.34-1.49.56-2.8.66-3.91.1-1.12.15-2.19.15-3.2,0-4.88-1.14-9.22-3.41-13.01ZM205.29,68.37c.09-.26.13-.58.23-.82.78-1.9,1.91-3.36,3.4-4.37,1.49-1.02,3.25-1.53,5.29-1.53s3.59.44,4.88,1.32c1.29.88,2.25,2.19,2.89,3.92.15.39.22.9.33,1.35l-17.02.14Z"/><path class="cls-2" d="M323.12,50.87c-3.09-1.69-6.62-2.54-10.62-2.54-4.27,0-8.07.9-11.39,2.69-1.49.8-2.8,1.79-4,2.9-1.14-1.22-2.42-2.29-3.88-3.15-2.74-1.63-5.81-2.44-9.2-2.44-3.86,0-7.32.78-10.37,2.34-.79.4-1.53.86-2.24,1.35v-2.68h-19.92v50.01h19.92v-28.67c0-1.15.22-2.14.66-2.95.44-.81,1.09-1.44,1.93-1.88.85-.44,1.81-.66,2.9-.66,1.56,0,2.84.49,3.86,1.47,1.01.99,1.52,2.32,1.52,4.02v28.67h19.92v-28.67c0-1.15.22-2.14.66-2.95.44-.81,1.08-1.44,1.93-1.88.84-.44,1.81-.66,2.89-.66,1.56,0,2.85.49,3.86,1.47,1.02.99,1.53,2.32,1.53,4.02v28.67h19.92v-29.68c0-4.47-.88-8.3-2.64-11.49-1.76-3.18-4.18-5.62-7.27-7.32Z"/><rect class="cls-2" x="346.44" y="49.34" width="19.92" height="50.01"/><polygon class="cls-2" points="416.51 73.46 432.64 49.34 411.7 49.34 405.53 60.21 399.61 49.34 376.84 49.34 393.31 73.97 375.82 99.36 396.76 99.36 404.28 86.88 411.09 99.36 433.66 99.36 416.51 73.46"/><path class="cls-2" d="M451.23,24.86h-5.28l-1.34,2.32h-24.01l-7.09-12.3h0l-1.3-2.26h-19.42l-8.41,14.56h-24.01l-1.34-2.32h-5.28l-2.64,4.57,2.64,4.57h5.28l1.34-2.32h24.01l8.41,14.56h19.41l8.41-14.56h24.01l1.34,2.32h5.28l2.64-4.57-2.64-4.57ZM409.61,41.73h-14.2l-7.09-12.3,7.09-12.3h14.2l7.09,12.3-7.09,12.3Z"/><polygon class="cls-2" points="438.9 12.64 431.79 24.94 437 24.94 441.5 17.13 455.7 17.13 462.79 29.43 455.7 41.73 441.5 41.73 437 33.95 431.79 33.95 438.9 46.25 458.3 46.25 468 29.43 458.3 12.64 438.9 12.64"/><polygon class="cls-2" points="405.14 34.01 407.78 29.43 405.14 24.86 399.86 24.86 397.22 29.43 399.86 34.01 405.14 34.01"/><polygon class="cls-2" points="362.05 39.15 367.65 29.43 362.05 19.73 350.83 19.73 345.22 29.43 350.83 39.15 362.05 39.15"/><polygon class="cls-2" points="346.73 46.25 366.12 46.25 373.23 33.95 368.02 33.95 363.52 41.73 349.32 41.73 342.21 29.43 349.32 17.13 363.52 17.13 368.02 24.94 373.23 24.94 366.12 12.64 346.73 12.64 337.02 29.43 346.73 46.25"/></symbol><symbol id="go-down" viewBox="0 0 128 128"><title>go-down</title><path d="m64 92.5 50-50-7.1-7.1-17.1 17.2-25.8 25.8-25.8-25.8-17.1-17.1-7.1 7.1z"/></symbol><symbol id="go-up" viewBox="0 0 128 128"><title>go-up</title><path d="m64 35.5-50 50 7.1 7.1 17.1-17.1 25.8-25.9 25.8 25.9 17.1 17.1 7.1-7.1z"/></symbol></svg>